<mxfile host="app.diagrams.net" modified="2023-07-20T02:22:51.034Z" agent="Mozilla/5.0 (Macintosh; Intel Mac OS X 10_15_7) AppleWebKit/537.36 (KHTML, like Gecko) Chrome/114.0.0.0 Safari/537.36" etag="7I3W-QS7O0YXDfUgEU2X" version="21.6.3" type="github">
  <diagram name="Page-1" id="e7e014a7-5840-1c2e-5031-d8a46d1fe8dd">
    <mxGraphModel dx="1322" dy="1131" grid="1" gridSize="10" guides="1" tooltips="1" connect="1" arrows="1" fold="1" page="1" pageScale="1" pageWidth="1169" pageHeight="826" background="none" math="0" shadow="0">
      <root>
        <mxCell id="0" />
        <mxCell id="1" parent="0" />
        <mxCell id="2" value="当前表" style="swimlane;whiteSpace=wrap" parent="1" vertex="1">
          <mxGeometry x="160" y="128" width="284.5" height="672" as="geometry" />
        </mxCell>
        <mxCell id="5" value="" style="ellipse;shape=startState;fillColor=#000000;strokeColor=#ff0000;" parent="2" vertex="1">
          <mxGeometry x="100" y="40" width="30" height="30" as="geometry" />
        </mxCell>
        <mxCell id="6" value="" style="edgeStyle=elbowEdgeStyle;elbow=horizontal;verticalAlign=bottom;endArrow=open;endSize=8;strokeColor=#FF0000;endFill=1;rounded=0" parent="2" source="5" target="7" edge="1">
          <mxGeometry x="100" y="40" as="geometry">
            <mxPoint x="115" y="110" as="targetPoint" />
          </mxGeometry>
        </mxCell>
        <mxCell id="7" value="配置当前表字段公式" style="" parent="2" vertex="1">
          <mxGeometry x="60" y="110" width="110" height="50" as="geometry" />
        </mxCell>
        <mxCell id="xgRnMHNvlEO0OYS58L5R-42" style="edgeStyle=orthogonalEdgeStyle;rounded=0;orthogonalLoop=1;jettySize=auto;html=1;" edge="1" parent="2" source="xgRnMHNvlEO0OYS58L5R-41">
          <mxGeometry relative="1" as="geometry">
            <mxPoint x="122.75" y="332" as="targetPoint" />
          </mxGeometry>
        </mxCell>
        <mxCell id="xgRnMHNvlEO0OYS58L5R-41" value="加载页面" style="rounded=0;whiteSpace=wrap;html=1;" vertex="1" parent="2">
          <mxGeometry x="55.5" y="242" width="134.5" height="48" as="geometry" />
        </mxCell>
        <mxCell id="xgRnMHNvlEO0OYS58L5R-45" style="edgeStyle=orthogonalEdgeStyle;rounded=0;orthogonalLoop=1;jettySize=auto;html=1;" edge="1" parent="2" source="xgRnMHNvlEO0OYS58L5R-43">
          <mxGeometry relative="1" as="geometry">
            <mxPoint x="122.75" y="432" as="targetPoint" />
          </mxGeometry>
        </mxCell>
        <mxCell id="xgRnMHNvlEO0OYS58L5R-43" value="观察公式依赖的字段" style="rounded=0;whiteSpace=wrap;html=1;" vertex="1" parent="2">
          <mxGeometry x="55.5" y="332" width="134.5" height="60" as="geometry" />
        </mxCell>
        <mxCell id="xgRnMHNvlEO0OYS58L5R-54" style="edgeStyle=orthogonalEdgeStyle;rounded=0;orthogonalLoop=1;jettySize=auto;html=1;" edge="1" parent="2" source="xgRnMHNvlEO0OYS58L5R-46" target="xgRnMHNvlEO0OYS58L5R-48">
          <mxGeometry relative="1" as="geometry" />
        </mxCell>
        <mxCell id="xgRnMHNvlEO0OYS58L5R-46" value="依赖字段修改" style="rhombus;whiteSpace=wrap;html=1;" vertex="1" parent="2">
          <mxGeometry x="83" y="432" width="87" height="80" as="geometry" />
        </mxCell>
        <mxCell id="xgRnMHNvlEO0OYS58L5R-56" style="edgeStyle=orthogonalEdgeStyle;rounded=0;orthogonalLoop=1;jettySize=auto;html=1;entryX=0.5;entryY=0;entryDx=0;entryDy=0;" edge="1" parent="2" source="xgRnMHNvlEO0OYS58L5R-48" target="xgRnMHNvlEO0OYS58L5R-55">
          <mxGeometry relative="1" as="geometry" />
        </mxCell>
        <mxCell id="xgRnMHNvlEO0OYS58L5R-48" value="前端执行公式" style="rounded=0;whiteSpace=wrap;html=1;" vertex="1" parent="2">
          <mxGeometry x="70" y="542" width="120" height="28" as="geometry" />
        </mxCell>
        <mxCell id="xgRnMHNvlEO0OYS58L5R-55" value="更新数据" style="rounded=0;whiteSpace=wrap;html=1;" vertex="1" parent="2">
          <mxGeometry x="70" y="602" width="120" height="60" as="geometry" />
        </mxCell>
        <mxCell id="3" value="服务端" style="swimlane;whiteSpace=wrap" parent="1" vertex="1">
          <mxGeometry x="444.5" y="128" width="280" height="672" as="geometry" />
        </mxCell>
        <mxCell id="13" value="" style="ellipse;shape=startState;fillColor=#000000;strokeColor=#ff0000;" parent="3" vertex="1">
          <mxGeometry x="120" y="40" width="30" height="30" as="geometry" />
        </mxCell>
        <mxCell id="14" value="" style="edgeStyle=elbowEdgeStyle;elbow=horizontal;verticalAlign=bottom;endArrow=open;endSize=8;strokeColor=#FF0000;endFill=1;rounded=0" parent="3" source="13" target="15" edge="1">
          <mxGeometry x="40" y="20" as="geometry">
            <mxPoint x="115" y="90" as="targetPoint" />
          </mxGeometry>
        </mxCell>
        <mxCell id="15" value="保存公式" style="" parent="3" vertex="1">
          <mxGeometry x="80" y="110" width="110" height="50" as="geometry" />
        </mxCell>
        <mxCell id="18" value="服务端执行公式" style="" parent="3" vertex="1">
          <mxGeometry x="85.5" y="447" width="110" height="50" as="geometry" />
        </mxCell>
        <mxCell id="xgRnMHNvlEO0OYS58L5R-50" style="edgeStyle=orthogonalEdgeStyle;rounded=0;orthogonalLoop=1;jettySize=auto;html=1;entryX=0;entryY=0.5;entryDx=0;entryDy=0;" edge="1" parent="1" source="7" target="15">
          <mxGeometry relative="1" as="geometry" />
        </mxCell>
        <mxCell id="xgRnMHNvlEO0OYS58L5R-49" style="edgeStyle=orthogonalEdgeStyle;rounded=0;orthogonalLoop=1;jettySize=auto;html=1;entryX=0;entryY=0.5;entryDx=0;entryDy=0;" edge="1" parent="1" source="xgRnMHNvlEO0OYS58L5R-46" target="18">
          <mxGeometry relative="1" as="geometry">
            <mxPoint x="490" y="600" as="targetPoint" />
          </mxGeometry>
        </mxCell>
        <mxCell id="xgRnMHNvlEO0OYS58L5R-57" style="edgeStyle=orthogonalEdgeStyle;rounded=0;orthogonalLoop=1;jettySize=auto;html=1;entryX=1;entryY=0.5;entryDx=0;entryDy=0;" edge="1" parent="1" source="18" target="xgRnMHNvlEO0OYS58L5R-55">
          <mxGeometry relative="1" as="geometry">
            <Array as="points">
              <mxPoint x="585" y="760" />
            </Array>
          </mxGeometry>
        </mxCell>
      </root>
    </mxGraphModel>
  </diagram>
</mxfile>
